# xmcd CD database file
# Copyright (C) 1996 Ti Kan
#
# Track frame offsets:
#	150
#	17182
#	37875
#	54695
#	67977
#	86920
#	96420
#	109957
#	129650
#	144600
# Disc length: 2182 seconds
#
# Revision: 1
# Processed by: cddbd v1.5.1PL0 Copyright (c) Steve Scherf et al.
# Submitted via: CDCOPY 4.900
#
DISCID=9008840a
DTITLE=Kristen Cifelli - So Long My Love
DYEAR=1900
DGENRE=
TTITLE0=So Long My Love
TTITLE1=Show Them
TTITLE2=Let it Go
TTITLE3=I'll Run
TTITLE4=Let them Try
TTITLE5=Plain as Day
TTITLE6=Sad Place
TTITLE7=Benefit of the Doubt
TTITLE8=Sure Thing
TTITLE9=Love your Hurt
EXTD=
EXTT0=
EXTT1=
EXTT2=
EXTT3=
EXTT4=
EXTT5=
EXTT6=
EXTT7=
EXTT8=
EXTT9=
PLAYORDER=
